<svg width="24" height="24" viewBox="0 0 24 24" fill="none" xmlns="http://www.w3.org/2000/svg">
<mask id="mask0_0_2361" style="mask-type:alpha" maskUnits="userSpaceOnUse" x="0" y="4" width="24" height="17">
<path fill-rule="evenodd" clip-rule="evenodd" d="M8.77817 4.29289C8.38765 3.90237 7.75449 3.90237 7.36396 4.29289L0.292893 11.364C-0.0976316 11.7545 -0.0976318 12.3876 0.292892 12.7782L7.36396 19.8492C7.75449 20.2398 8.38765 20.2398 8.77817 19.8492C9.1687 19.4587 9.1687 18.8256 8.77817 18.435L3.41421 13.0711H22.5858C23.1381 13.0711 23.5858 12.6234 23.5858 12.0711C23.5858 11.5188 23.1381 11.0711 22.5858 11.0711H3.41421L8.77817 5.70711C9.1687 5.31658 9.1687 4.68342 8.77817 4.29289Z" fill="white"/>
</mask>
<g mask="url(#mask0_0_2361)">
<rect width="24" height="24" fill="#1D1D1D"/>
</g>
</svg>
